<?xml version="1.0" standalone="no"?>
<!DOCTYPE svg PUBLIC "-//W3C//DTD SVG 20010904//EN"
 "http://www.w3.org/TR/2001/REC-SVG-20010904/DTD/svg10.dtd">
<svg version="1.0" xmlns="http://www.w3.org/2000/svg"
 width="1360.000000pt" height="961.000000pt" viewBox="0 0 1360.000000 961.000000"
 preserveAspectRatio="xMidYMid meet">

<g transform="translate(0.000000,961.000000) scale(0.100000,-0.100000)"
fill="#000000" stroke="none">
<path d="M0 4805 l0 -4805 6800 0 6800 0 0 4805 0 4805 -6800 0 -6800 0 0
-4805z m9230 1120 c0 -19 -4 -35 -10 -35 -5 0 -10 16 -10 35 0 19 5 35 10 35
6 0 10 -16 10 -35z m17 -27 c-2 -13 -4 -3 -4 22 0 25 2 35 4 23 2 -13 2 -33 0
-45z m43 22 c0 -29 -4 -40 -15 -40 -11 0 -15 11 -15 40 0 29 4 40 15 40 11 0
15 -11 15 -40z m100 -5 c0 -21 -22 -35 -37 -24 -15 13 -17 39 -3 39 6 0 10 8
10 18 1 15 2 15 15 -2 8 -11 15 -25 15 -31z m-83 -17 c-2 -13 -4 -5 -4 17 -1
22 1 32 4 23 2 -10 2 -28 0 -40z m203 16 c0 -26 -4 -32 -15 -28 -8 4 -15 18
-15 33 0 18 5 28 15 28 10 0 15 -11 15 -33z m17 -16 c-2 -13 -4 -5 -4 17 -1
22 1 32 4 23 2 -10 2 -28 0 -40z m-77 12 c0 -11 -4 -20 -10 -20 -5 0 -10 9
-10 20 0 11 5 20 10 20 6 0 10 -9 10 -20z m-1794 -29 c27 -11 113 -52 190 -91
153 -78 210 -93 260 -67 44 22 66 52 79 104 9 34 17 48 29 47 85 -4 79 -1 71
-41 -23 -122 -119 -213 -225 -213 -55 0 -160 38 -266 97 -188 103 -262 119
-326 71 -34 -26 -50 -54 -63 -112 -6 -27 -8 -28 -48 -22 -23 4 -43 9 -45 11
-2 2 1 27 8 54 26 111 136 198 235 187 28 -3 73 -14 101 -25z m-586 -141 c0
-5 -4 -10 -10 -10 -5 0 -10 5 -10 10 0 6 5 10 10 10 6 0 10 -4 10 -10z m-2021
-96 c14 -12 -19 -1 -35 12 -18 14 -18 14 6 3 14 -6 27 -13 29 -15z m-49 -13
c0 -5 10 -13 21 -16 14 -5 17 -10 10 -14 -16 -10 8 -181 26 -181 11 0 13 -138
13 -760 l0 -760 -46 0 -45 0 3 813 c3 606 7 821 16 847 11 31 10 37 -8 52 -24
19 -25 28 -5 28 8 0 15 -4 15 -9z m2080 -117 c0 -76 -2 -85 -17 -82 -13 2 -20
16 -24 48 -4 29 -7 36 -9 20 -3 -24 -3 -24 -7 -2 -7 37 -23 25 -23 -18 0 -22
-4 -40 -10 -40 -6 0 -10 33 -10 80 l0 80 50 0 50 0 0 -86z m-420 27 l0 -39
-50 -4 -50 -3 0 43 0 42 50 0 50 0 0 -39z m120 -1 l0 -40 -50 0 -50 0 0 40 0
40 50 0 50 0 0 -40z m125 0 l0 -40 -52 0 -53 0 0 40 0 40 53 0 52 0 0 -40z
m2423 13 c3 -10 -16 -13 -72 -13 -78 0 -115 16 -49 22 75 6 116 3 121 -9z
m132 2 c0 -11 -12 -15 -45 -15 -42 0 -54 7 -38 23 3 4 24 7 45 7 27 0 38 -4
38 -15z m84 -131 c279 -57 534 -316 587 -597 15 -81 15 -256 -1 -330 -28 -137
-103 -273 -209 -378 -161 -160 -333 -231 -556 -231 -127 0 -228 21 -330 71
-280 135 -448 399 -447 706 0 189 52 338 168 483 192 242 473 340 788 276z
m-3691 -12 c55 -25 137 -104 154 -151 11 -29 10 -33 -10 -40 -61 -23 -64 -23
-77 9 -18 43 -82 95 -136 110 -129 36 -260 -39 -294 -168 -35 -135 59 -257
266 -341 249 -103 393 -259 410 -446 15 -172 -59 -327 -203 -427 -173 -118
-431 -86 -575 71 -51 55 -100 147 -113 207 -6 29 -3 33 26 43 49 17 56 14 64
-26 17 -90 101 -195 192 -240 73 -35 184 -43 269 -18 116 34 208 132 240 257
52 201 -71 386 -324 488 -127 51 -181 82 -241 140 -82 79 -106 133 -105 240 0
72 4 93 26 136 35 67 121 145 184 166 67 23 183 19 247 -10z m-1638 -32 c112
-36 189 -79 265 -147 115 -104 194 -239 231 -400 42 -183 11 -399 -79 -552
-136 -228 -332 -349 -598 -369 -60 -5 -131 -8 -159 -8 l-50 1 -3 759 -2 759
147 -6 c130 -4 160 -9 248 -37z m2905 -5 l0 -45 -335 0 -335 0 0 -310 0 -310
335 0 335 0 0 -45 0 -45 -335 0 -335 0 0 -310 0 -310 118 -1 c64 -1 170 -3
235 -5 77 -2 115 1 111 7 -3 6 -3 46 1 90 l7 79 74 0 74 0 -2 -89 -3 -89 25 1
c23 2 25 -1 25 -43 l0 -45 -380 0 -380 0 -3 758 -2 757 385 0 385 0 0 -45z
m403 -47 c30 -51 99 -169 152 -263 54 -93 139 -240 188 -325 49 -85 141 -245
205 -355 64 -110 127 -220 141 -245 l26 -45 3 663 2 662 45 0 45 0 0 -760 0
-760 -43 0 -44 0 -204 352 c-112 194 -209 362 -215 373 -6 11 -37 65 -69 120
-32 55 -75 129 -96 165 -21 36 -73 127 -116 202 l-78 137 -3 -675 -2 -674 -45
0 -45 0 0 760 0 760 49 0 50 0 54 -92z m-1748 -954 c75 -81 -37 -194 -119
-121 -40 34 -43 77 -11 115 36 43 94 45 130 6z m765 -34 c0 -5 -9 -10 -20 -10
-11 0 -20 5 -20 10 0 6 9 10 20 10 11 0 20 -4 20 -10z m82 -12 c-9 -9 -15 -9
-24 0 -9 9 -7 12 12 12 19 0 21 -3 12 -12z m100 0 c-9 -9 -15 -9 -24 0 -9 9
-7 12 12 12 19 0 21 -3 12 -12z m348 -33 l0 -35 -55 0 c-48 0 -55 2 -55 20 0
11 -5 20 -11 20 -6 0 -8 -9 -4 -20 3 -11 2 -20 -3 -20 -12 0 -22 24 -22 51 0
17 8 19 75 19 l75 0 0 -35z m-200 -1 c0 -21 -17 -25 -22 -6 -3 11 0 19 8 19 8
0 14 -6 14 -13z m200 -80 c0 -31 -3 -35 -22 -32 -16 2 -25 12 -29 33 l-7 30
-1 -31 c-1 -30 -3 -31 -46 -32 -45 -1 -45 -1 -45 33 l0 35 75 0 75 0 0 -36z
m-185 -94 c0 -112 -1 -115 -22 -118 -16 -2 -23 2 -23 12 0 22 -20 20 -21 -1 0
-15 -2 -15 -9 2 -7 17 -9 17 -9 3 -1 -26 -21 -22 -22 5 -1 18 -2 19 -6 4 -4
-16 -7 -15 -19 8 -9 18 -14 59 -14 117 l0 89 73 -3 72 -3 0 -115z m-1235 -360
l0 -80 -90 0 -90 0 0 80 0 80 90 0 90 0 0 -80z m250 15 c0 -16 -6 -25 -15 -25
-10 0 -15 -11 -16 -32 l-1 -33 -10 35 c-9 31 -11 33 -19 15 -6 -17 -8 -17 -8
-2 -1 13 -10 17 -46 17 -41 0 -45 2 -45 25 0 25 1 25 80 25 79 0 80 0 80 -25z
m-95 -45 c-3 -5 -15 -10 -26 -10 -10 0 -19 5 -19 10 0 6 12 10 26 10 14 0 23
-4 19 -10z m5 -160 l0 -70 -145 0 -145 0 0 70 0 70 145 0 145 0 0 -70z"/>
<path d="M9215 5334 c-38 -7 -108 -32 -155 -55 -69 -34 -103 -60 -176 -133
-74 -74 -98 -107 -132 -176 -223 -458 106 -990 612 -990 212 0 392 83 527 244
108 128 159 268 159 441 0 169 -51 313 -153 434 -171 202 -418 287 -682 235z
m5 -673 c0 -5 -7 -14 -16 -21 -13 -11 -19 -10 -37 8 l-21 22 37 0 c20 0 37 -4
37 -9z m160 -1 c0 -17 -34 -29 -53 -19 -28 16 -20 29 18 29 19 0 35 -4 35 -10z
m160 1 c0 -20 -28 -33 -49 -21 -32 16 -25 30 14 30 19 0 35 -4 35 -9z m-200
-366 c0 -32 -2 -35 -30 -35 -28 0 -30 3 -30 35 0 32 2 35 30 35 28 0 30 -3 30
-35z m138 -12 c3 -31 1 -33 -27 -33 -27 0 -31 3 -31 28 0 35 8 44 35 40 15 -2
21 -12 23 -35z m-210 -25 c-2 -28 -7 -33 -28 -33 -21 0 -26 5 -28 33 -3 30 -1
32 28 32 29 0 31 -2 28 -32z m142 -8 c0 -38 -2 -40 -30 -40 -28 0 -30 2 -30
40 0 38 2 40 30 40 28 0 30 -2 30 -40z m-145 -125 c0 -25 -4 -30 -27 -33 -22
-3 -30 2 -40 23 -14 31 1 47 42 43 21 -3 25 -8 25 -33z m256 15 c24 0 28 -4
25 -22 -3 -21 -8 -23 -72 -23 -63 0 -69 2 -66 20 5 31 30 45 59 34 13 -5 37
-9 54 -9z"/>
<path d="M3920 4665 l0 -668 95 6 c113 8 245 48 327 100 72 46 166 149 212
230 103 185 107 446 10 637 -109 216 -292 331 -561 355 l-83 7 0 -667z m304
-1 c3 -9 6 -40 6 -71 0 -39 -4 -54 -12 -51 -15 5 -24 138 -10 138 6 0 13 -7
16 -16z m106 -54 c0 -40 -4 -70 -10 -70 -6 0 -10 30 -10 70 0 40 4 70 10 70 6
0 10 -30 10 -70z m-169 28 c24 -29 24 -50 0 -79 -16 -20 -23 -22 -38 -13 -10
6 -22 23 -27 37 -8 22 -6 31 14 52 29 30 27 30 51 3z m119 -43 c0 -55 -4 -62
-28 -47 -17 11 -5 102 14 102 10 0 14 -15 14 -55z"/>
<path d="M7027 4137 c-3 -7 -2 -19 3 -26 5 -10 8 -9 13 2 3 7 2 19 -3 26 -5
10 -8 9 -13 -2z"/>
<path d="M6930 4110 c0 -5 9 -10 20 -10 11 0 20 5 20 10 0 6 -9 10 -20 10 -11
0 -20 -4 -20 -10z"/>
<path d="M6751 4193 c-1 -29 2 -33 24 -33 21 0 25 4 24 28 -2 23 -2 24 -6 5
-6 -31 -19 -29 -31 5 l-10 27 -1 -32z"/>
<path d="M6850 4095 c0 -8 5 -15 10 -15 6 0 10 7 10 15 0 8 -4 15 -10 15 -5 0
-10 -7 -10 -15z"/>
<path d="M5520 3796 c0 -18 61 -30 71 -14 12 19 1 28 -37 28 -22 0 -34 -5 -34
-14z"/>
</g>
</svg>
